


Note : I Will Not Be In Kolkata For Two Days ! Fortunately I Find An Assistant, Unfortunately He Is Also Very Busy ! So Seeding Task Will Be Delayed But Eventually Completed ! So Keep Patience ! Enjoy !



Screens :


 
http://www.shotpix.com/images/72035271658387360656.jpeg
 
http://www.shotpix.com/images/00348859943389704731.jpg



Extra Screen Shots :


 
http://www.shotpix.com/images/75538121251515086244.jpg
 
http://www.shotpix.com/images/20597215888322821102.jpg
 
http://www.shotpix.com/images/58715342309681557138.jpg
 
http://www.shotpix.com/images/39503220803504857405.jpg



Media Info :



Format                           : AVI
Format/Info                      : Audio Video Interleave
File size                        : 698 MiB
Duration                         : 2h 26mn
Overall bit rate                 : 666 Kbps

Video
ID                               : 0
Format                           : MPEG-4 Visual
Format settings, GMC             : No warppoints
Format settings, Matrix          : Custom
Codec ID                         : XVID
Codec ID/Hint                    : XviD
Duration                         : 2h 26mn
Bit rate                         : 538 Kbps
Width                            : 544 pixels
Height                           : 336 pixels
Display aspect ratio             : 1.619
Frame rate                       : 29.970 fps
Color space                      : YUV
Chroma subsampling               : 4:2:0
Bit depth                        : 8 bits
Scan type                        : Progressive
Compression mode                 : Lossy
Bits/(Pixel*Frame)               : 0.098
Stream size                      : 565 MiB (81%)
Writing library                  : XviD 1.2.1 (UTC 2008-12-04)

Audio
ID                               : 1
Format                           : MPEG Audio
Format version                   : Version 1
Format profile                   : Layer 3
Mode                             : Joint stereo
Mode extension                   : MS Stereo
Codec ID                         : 55
Codec ID/Hint                    : MP3
Duration                         : 2h 26mn
Bit rate mode                    : Variable
Bit rate                         : 114 Kbps
Nominal bit rate                 : 128 Kbps
Channel(s)                       : 2 channels
Sampling rate                    : 48.0 KHz
Compression mode                 : Lossy
Stream size                      : 119 MiB (17%)
Alignment                        : Aligned on interleaves
Interleave, duration             : 24 ms (0.72 video frame)





